<svg xmlns="http://www.w3.org/2000/svg" viewBox="0 0 1289 162" width="1289" height="162"><rect x="0.5" y="0.5" width="1288" height="161" rx="10" fill="#ffffff" stroke="#d8ddda"/><rect x="0" y="0" width="4" height="162" fill="#5aa8a8"/><rect x="12" y="24" width="56" height="18" rx="4" fill="#ffffff" stroke="#c8ccc9"/><text x="20" y="37" font-family="Arial, Helvetica, sans-serif" font-size="11" fill="#5b6663" text-anchor="start">OC-SIS</text><rect x="80" y="10" width="196" height="46" rx="0" fill="#b5ffff" stroke="#5aa8a8"/><g transform="translate(254,15)" fill="none" stroke="#444" stroke-width="1.3"><rect x="4" y="2" width="10" height="12"/><rect x="2" y="4" width="4" height="2.5"/><rect x="2" y="8.5" width="4" height="2.5"/></g><text x="90" y="27" font-family="Arial, Helvetica, sans-serif" font-size="11" fill="#2a5a5a" text-anchor="start">van</text><text x="90" y="44" font-family="Arial, Helvetica, sans-serif" font-size="13" font-weight="bold" fill="#1c1c1c" text-anchor="start">Onderwijscatalogus</text><path d="M282.03999999999996 33H587.64" stroke="#2a5a5a" stroke-width="2" stroke-dasharray="5 4"/><path d="M585.64 27l10 6-10 6z" fill="#2a5a5a"/><rect x="598" y="10" width="377" height="46" rx="0" fill="#b5ffff" stroke="#5aa8a8"/><g transform="translate(952,15)" fill="none" stroke="#444" stroke-width="1.3"><rect x="4" y="2" width="10" height="12"/><rect x="2" y="4" width="4" height="2.5"/><rect x="2" y="8.5" width="4" height="2.5"/></g><text x="608" y="27" font-family="Arial, Helvetica, sans-serif" font-size="11" fill="#2a5a5a" text-anchor="start">naar</text><text x="608" y="44" font-family="Arial, Helvetica, sans-serif" font-size="13" font-weight="bold" fill="#1c1c1c" text-anchor="start">Kernregistratie systeem studenten (KRS)</text><rect x="984" y="24" width="293" height="18" rx="9" fill="#ffffff" stroke="#c8ccc9" stroke-dasharray="2 2"/><text x="992" y="37" font-family="Arial, Helvetica, sans-serif" font-size="11" fill="#5b6663" text-anchor="start">na: Orienteren op het gepubliceerde aanbod</text><path d="M326.03999999999996 33V78" stroke="#2a5a5a" stroke-width="1.5" stroke-dasharray="3 3"/><rect x="302" y="82" width="262" height="46" rx="0" fill="#ffffb5" stroke="#a8a85a"/><g transform="translate(542,87)" fill="none" stroke="#444" stroke-width="1.3"><rect x="2" y="3" width="12" height="10"/><path d="M2 6.5h12"/></g><text x="312" y="99" font-family="Arial, Helvetica, sans-serif" font-size="11" fill="#5a5a2a" text-anchor="start">Opleidingsprogramma aanbod</text><text x="536" y="99" font-family="Arial, Helvetica, sans-serif" font-size="10" fill="#5b6663" text-anchor="end">R3-001</text><text x="312" y="116" font-family="Arial, Helvetica, sans-serif" font-size="13" font-weight="bold" fill="#1c1c1c" text-anchor="start">Regulier BOL 2026</text><text x="12" y="150" font-family="Arial, Helvetica, sans-serif" font-size="13" fill="#5b6663" text-anchor="start">De catalogus ontsluit het aanmeld- en inschrijfbare aanbod aan de kernregistratie.</text></svg>