<svg xmlns="http://www.w3.org/2000/svg" viewBox="0 0 1152 90" width="1152" height="90"><rect x="0.5" y="0.5" width="1151" height="89" rx="10" fill="#ffffff" stroke="#d8ddda"/><rect x="0" y="0" width="4" height="90" fill="#5aa8a8"/><rect x="12" y="24" width="56" height="18" rx="4" fill="#ffffff" stroke="#c8ccc9"/><text x="20" y="37" font-family="Arial, Helvetica, sans-serif" font-size="11" fill="#5b6663" text-anchor="start">OC-SIS</text><rect x="80" y="10" width="196" height="46" rx="0" fill="#b5ffff" stroke="#5aa8a8"/><g transform="translate(254,15)" fill="none" stroke="#444" stroke-width="1.3"><rect x="4" y="2" width="10" height="12"/><rect x="2" y="4" width="4" height="2.5"/><rect x="2" y="8.5" width="4" height="2.5"/></g><text x="90" y="27" font-family="Arial, Helvetica, sans-serif" font-size="11" fill="#2a5a5a" text-anchor="start">van</text><text x="90" y="44" font-family="Arial, Helvetica, sans-serif" font-size="13" font-weight="bold" fill="#1c1c1c" text-anchor="start">Onderwijscatalogus</text><path d="M282.03999999999996 33h34" stroke="#2a5a5a" stroke-width="2" stroke-dasharray="5 4"/><rect x="316" y="18" width="278" height="32" rx="0" fill="#ffffb5" stroke="#a8a85a"/><g transform="translate(574,20)" fill="none" stroke="#444" stroke-width="1.3"><rect x="2" y="3" width="12" height="10"/><path d="M2 6.5h12"/></g><text x="324" y="31" font-family="Arial, Helvetica, sans-serif" font-size="12" fill="#1c1c1c" text-anchor="start">Summatieve resultaat structuur</text><text x="324" y="44" font-family="Arial, Helvetica, sans-serif" font-size="12" font-weight="bold" fill="#1c1c1c" text-anchor="start">Examenplan Apothekersassistent</text><path d="M593.64 33h34" stroke="#2a5a5a" stroke-width="2" stroke-dasharray="5 4"/><path d="M625.64 27l10 6-10 6z" fill="#2a5a5a"/><rect x="638" y="10" width="265" height="46" rx="0" fill="#b5ffff" stroke="#5aa8a8"/><g transform="translate(881,15)" fill="none" stroke="#444" stroke-width="1.3"><rect x="4" y="2" width="10" height="12"/><rect x="2" y="4" width="4" height="2.5"/><rect x="2" y="8.5" width="4" height="2.5"/></g><text x="648" y="27" font-family="Arial, Helvetica, sans-serif" font-size="11" fill="#2a5a5a" text-anchor="start">naar</text><text x="648" y="44" font-family="Arial, Helvetica, sans-serif" font-size="13" font-weight="bold" fill="#1c1c1c" text-anchor="start">Student volg systeem (SVS)</text><rect x="913" y="24" width="227" height="18" rx="9" fill="#ffffff" stroke="#c8ccc9" stroke-dasharray="2 2"/><text x="921" y="37" font-family="Arial, Helvetica, sans-serif" font-size="11" fill="#5b6663" text-anchor="start">na: Resultaatstructuur inrichten</text><text x="12" y="78" font-family="Arial, Helvetica, sans-serif" font-size="13" fill="#5b6663" text-anchor="start">De resultaatstructuur gaat naar het studentvolgsysteem als nominaal template.</text></svg>