<svg xmlns="http://www.w3.org/2000/svg" viewBox="0 0 1262 90" width="1262" height="90"><rect x="0.5" y="0.5" width="1261" height="89" rx="10" fill="#ffffff" stroke="#d8ddda"/><rect x="0" y="0" width="4" height="90" fill="#5aa8a8"/><rect x="12" y="24" width="201" height="18" rx="4" fill="#ffffff" stroke="#c8ccc9"/><text x="20" y="37" font-family="Arial, Helvetica, sans-serif" font-size="11" fill="#5b6663" text-anchor="start">zonder koppelingspecificatie</text><rect x="225" y="10" width="377" height="46" rx="0" fill="#b5ffff" stroke="#5aa8a8"/><g transform="translate(579,15)" fill="none" stroke="#444" stroke-width="1.3"><rect x="4" y="2" width="10" height="12"/><rect x="2" y="4" width="4" height="2.5"/><rect x="2" y="8.5" width="4" height="2.5"/></g><text x="235" y="27" font-family="Arial, Helvetica, sans-serif" font-size="11" fill="#2a5a5a" text-anchor="start">van</text><text x="235" y="44" font-family="Arial, Helvetica, sans-serif" font-size="13" font-weight="bold" fill="#1c1c1c" text-anchor="start">Kernregistratie systeem studenten (KRS)</text><path d="M607.42 33h34" stroke="#2a5a5a" stroke-width="2" stroke-dasharray="5 4"/><rect x="641" y="18" width="214" height="32" rx="0" fill="#ffffb5" stroke="#a8a85a"/><g transform="translate(836,20)" fill="none" stroke="#444" stroke-width="1.3"><rect x="2" y="3" width="12" height="10"/><path d="M2 6.5h12"/></g><text x="649" y="31" font-family="Arial, Helvetica, sans-serif" font-size="12" fill="#1c1c1c" text-anchor="start">Plaatsingsgroep</text><text x="649" y="44" font-family="Arial, Helvetica, sans-serif" font-size="12" font-weight="bold" fill="#1c1c1c" text-anchor="start">APO26-1A, 30 studenten</text><path d="M855.66 33h34" stroke="#2a5a5a" stroke-width="2" stroke-dasharray="5 4"/><path d="M887.66 27l10 6-10 6z" fill="#2a5a5a"/><rect x="900" y="10" width="179" height="46" rx="0" fill="#b5ffff" stroke="#5aa8a8"/><g transform="translate(1057,15)" fill="none" stroke="#444" stroke-width="1.3"><rect x="4" y="2" width="10" height="12"/><rect x="2" y="4" width="4" height="2.5"/><rect x="2" y="8.5" width="4" height="2.5"/></g><text x="910" y="27" font-family="Arial, Helvetica, sans-serif" font-size="11" fill="#2a5a5a" text-anchor="start">naar</text><text x="910" y="44" font-family="Arial, Helvetica, sans-serif" font-size="13" font-weight="bold" fill="#1c1c1c" text-anchor="start">Planningssysteem</text><rect x="1089" y="24" width="161" height="18" rx="9" fill="#ffffff" stroke="#c8ccc9" stroke-dasharray="2 2"/><text x="1097" y="37" font-family="Arial, Helvetica, sans-serif" font-size="11" fill="#5b6663" text-anchor="start">na: Groepen definieren</text><text x="12" y="78" font-family="Arial, Helvetica, sans-serif" font-size="13" fill="#5b6663" text-anchor="start">De plaatsingsgroepen met hun studenten gaan van de kernregistratie naar planning.</text></svg>