<svg xmlns="http://www.w3.org/2000/svg" viewBox="0 0 1242 106" width="1242" height="106"><rect x="0.5" y="0.5" width="1241" height="105" rx="10" fill="#ffffff" stroke="#d8ddda"/><rect x="12" y="10" width="120" height="46" rx="8" fill="#ffffb5" stroke="#a8a85a"/><g transform="translate(110,15)" fill="none" stroke="#444" stroke-width="1.3"><rect x="2" y="5" width="10" height="6" rx="3"/><ellipse cx="12" cy="8" rx="2" ry="3"/></g><text x="22" y="27" font-family="Arial, Helvetica, sans-serif" font-size="11" fill="#5a5a2a" text-anchor="start">rol</text><text x="22" y="44" font-family="Arial, Helvetica, sans-serif" font-size="13" font-weight="bold" fill="#1c1c1c" text-anchor="start">student</text><rect x="142" y="10" width="505" height="46" rx="8" fill="#ffffb5" stroke="#a8a85a"/><g transform="translate(625,15)" fill="none" stroke="#444" stroke-width="1.3"><path d="M2 5h8V2l5 6-5 6v-3H2z"/></g><text x="152" y="27" font-family="Arial, Helvetica, sans-serif" font-size="11" fill="#5a5a2a" text-anchor="start">processtap</text><text x="152" y="44" font-family="Arial, Helvetica, sans-serif" font-size="13" font-weight="bold" fill="#1c1c1c" text-anchor="start">Voorkeurslijst samenstellen in het studentkeuzesysteem</text><text x="653" y="40" font-family="Arial, Helvetica, sans-serif" font-size="18" fill="#5b6663" text-anchor="start">→</text><rect x="673" y="10" width="557" height="62" rx="0" fill="#ffffb5" stroke="#a8a85a"/><g transform="translate(1208,15)" fill="none" stroke="#444" stroke-width="1.3"><rect x="2" y="3" width="12" height="10"/><path d="M2 6.5h12"/></g><text x="683" y="27" font-family="Arial, Helvetica, sans-serif" font-size="11" fill="#5a5a2a" text-anchor="start">Keuzedeel aanbod verbintenis</text><text x="683" y="44" font-family="Arial, Helvetica, sans-serif" font-size="13" font-weight="bold" fill="#1c1c1c" text-anchor="start">Jochem op Ondernemerschap in de zorg, periode 7 (voorkeur 1)</text><text x="683" y="60" font-family="Arial, Helvetica, sans-serif" font-size="11" fill="#5b6663" text-anchor="start">Keuzedeelaanbod hangt aan</text><text x="12" y="94" font-family="Arial, Helvetica, sans-serif" font-size="13" fill="#5b6663" text-anchor="start">Jochem stelt zijn voorkeurslijst samen; zijn keuze is een verbintenis op het gekozen keuzedeelaanbod.</text></svg>