<svg xmlns="http://www.w3.org/2000/svg" viewBox="0 0 1340 178" width="1340" height="178"><rect x="0.5" y="0.5" width="1339" height="177" rx="10" fill="#ffffff" stroke="#d8ddda"/><rect x="0" y="0" width="4" height="178" fill="#5aa8a8"/><rect x="12" y="24" width="201" height="18" rx="4" fill="#ffffff" stroke="#c8ccc9"/><text x="20" y="37" font-family="Arial, Helvetica, sans-serif" font-size="11" fill="#5b6663" text-anchor="start">zonder koppelingspecificatie</text><rect x="225" y="10" width="179" height="46" rx="0" fill="#b5ffff" stroke="#5aa8a8"/><g transform="translate(382,15)" fill="none" stroke="#444" stroke-width="1.3"><rect x="4" y="2" width="10" height="12"/><rect x="2" y="4" width="4" height="2.5"/><rect x="2" y="8.5" width="4" height="2.5"/></g><text x="235" y="27" font-family="Arial, Helvetica, sans-serif" font-size="11" fill="#2a5a5a" text-anchor="start">van</text><text x="235" y="44" font-family="Arial, Helvetica, sans-serif" font-size="13" font-weight="bold" fill="#1c1c1c" text-anchor="start">Planningssysteem</text><path d="M410.08 33H892.0799999999999" stroke="#2a5a5a" stroke-width="2" stroke-dasharray="5 4"/><path d="M890.0799999999999 27l10 6-10 6z" fill="#2a5a5a"/><rect x="902" y="10" width="162" height="46" rx="0" fill="#b5ffff" stroke="#5aa8a8"/><g transform="translate(1042,15)" fill="none" stroke="#444" stroke-width="1.3"><rect x="4" y="2" width="10" height="12"/><rect x="2" y="4" width="4" height="2.5"/><rect x="2" y="8.5" width="4" height="2.5"/></g><text x="912" y="27" font-family="Arial, Helvetica, sans-serif" font-size="11" fill="#2a5a5a" text-anchor="start">naar</text><text x="912" y="44" font-family="Arial, Helvetica, sans-serif" font-size="13" font-weight="bold" fill="#1c1c1c" text-anchor="start">Roostersysteem</text><rect x="1074" y="24" width="254" height="18" rx="9" fill="#ffffff" stroke="#c8ccc9" stroke-dasharray="2 2"/><text x="1082" y="37" font-family="Arial, Helvetica, sans-serif" font-size="11" fill="#5b6663" text-anchor="start">na: Nieuw aanbod maken en publiceren</text><path d="M454.08 33V78" stroke="#2a5a5a" stroke-width="1.5" stroke-dasharray="3 3"/><rect x="430" y="82" width="438" height="62" rx="0" fill="#ffffb5" stroke="#a8a85a"/><g transform="translate(846,87)" fill="none" stroke="#444" stroke-width="1.3"><rect x="2" y="3" width="12" height="10"/><path d="M2 6.5h12"/></g><text x="440" y="99" font-family="Arial, Helvetica, sans-serif" font-size="11" fill="#5a5a2a" text-anchor="start">Leergelegenheid</text><text x="840" y="99" font-family="Arial, Helvetica, sans-serif" font-size="10" fill="#5b6663" text-anchor="end">R7-006</text><text x="440" y="116" font-family="Arial, Helvetica, sans-serif" font-size="13" font-weight="bold" fill="#1c1c1c" text-anchor="start">B1-K2-W1, periode 5</text><text x="440" y="132" font-family="Arial, Helvetica, sans-serif" font-size="11" fill="#5b6663" text-anchor="start">Onderwijseenheid aanbod bevat: B1-K2, periode 5, bijgestuurd</text><text x="12" y="166" font-family="Arial, Helvetica, sans-serif" font-size="13" fill="#5b6663" text-anchor="start"></text></svg>