<svg xmlns="http://www.w3.org/2000/svg" viewBox="0 0 529 248" width="529" height="248"><rect x="0.5" y="0.5" width="528" height="247" rx="10" fill="#ffffff" stroke="#d8ddda"/><text x="12" y="22" font-family="Arial, Helvetica, sans-serif" font-size="15" font-weight="bold" fill="#1c1c1c" text-anchor="start">F8-01 - Examengelegenheid uit de examenspecificatie</text><rect x="12" y="40" width="134" height="48" rx="8" fill="#ffffb5" stroke="#a8a85a"/><g transform="translate(124,45)" fill="none" stroke="#444" stroke-width="1.3"><rect x="2" y="5" width="10" height="6" rx="3"/><ellipse cx="12" cy="8" rx="2" ry="3"/></g><text x="22" y="58" font-family="Arial, Helvetica, sans-serif" font-size="12" fill="#5a5a2a" text-anchor="start">rol</text><text x="22" y="76" font-family="Arial, Helvetica, sans-serif" font-size="14" font-weight="bold" fill="#1c1c1c" text-anchor="start">examinator</text><rect x="156" y="40" width="328" height="66" rx="8" fill="#ffffb5" stroke="#a8a85a"/><g transform="translate(463,45)" fill="none" stroke="#444" stroke-width="1.3"><path d="M2 5h8V2l5 6-5 6v-3H2z"/></g><text x="166" y="58" font-family="Arial, Helvetica, sans-serif" font-size="12" fill="#5a5a2a" text-anchor="start">processtap</text><text x="166" y="76" font-family="Arial, Helvetica, sans-serif" font-size="14" font-weight="bold" fill="#1c1c1c" text-anchor="start">Examenspecificaties omzetten in</text><text x="166" y="94" font-family="Arial, Helvetica, sans-serif" font-size="14" font-weight="bold" fill="#1c1c1c" text-anchor="start">examengelegenheden</text><path d="M64 106 V126" stroke="#a8a85a" stroke-width="1.5" stroke-dasharray="3 3"/><path d="M59 120 l5 6 5 -6" fill="none" stroke="#a8a85a" stroke-width="1.5"/><rect x="40" y="130" width="412" height="65" rx="0" fill="#ffffb5" stroke="#a8a85a" stroke-dasharray="5 3"/><g transform="translate(430,135)" fill="none" stroke="#444" stroke-width="1.3"><rect x="2" y="3" width="12" height="10"/><path d="M2 6.5h12"/></g><text x="50" y="148" font-family="Arial, Helvetica, sans-serif" font-size="12" fill="#5a5a2a" text-anchor="start">Examengelegenheid</text><text x="50" y="166" font-family="Arial, Helvetica, sans-serif" font-size="14" font-weight="bold" fill="#1c1c1c" text-anchor="start">Proeve van bekwaamheid B1-K1, periode 12</text><text x="50" y="183" font-family="Arial, Helvetica, sans-serif" font-size="12" fill="#5b6663" text-anchor="start">Examenonderdeelspecificatie hangt aan</text><text x="12" y="217" font-family="Arial, Helvetica, sans-serif" font-size="14" fill="#5b6663" text-anchor="start">Op basis van het examenplan uit fase 1 worden de</text><text x="12" y="236" font-family="Arial, Helvetica, sans-serif" font-size="14" fill="#5b6663" text-anchor="start">examenonderdelen omgezet in examengelegenheden.</text></svg>