<svg xmlns="http://www.w3.org/2000/svg" viewBox="0 0 1170 407" width="1170" height="407"><rect x="0.5" y="0.5" width="1169" height="406" rx="10" fill="#ffffff" stroke="#d8ddda"/><text x="12" y="22" font-family="Arial, Helvetica, sans-serif" font-size="15" font-weight="bold" fill="#1c1c1c" text-anchor="start">Vaststelling naar de kernregistratie</text><rect x="0" y="0" width="4" height="407" fill="#5aa8a8"/><rect x="12" y="54" width="203" height="19" rx="4" fill="#ffffff" stroke="#c8ccc9"/><text x="20" y="67" font-family="Arial, Helvetica, sans-serif" font-size="12" fill="#5b6663" text-anchor="start">geen pijl op de hoofdplaat</text><rect x="227" y="40" width="282" height="48" rx="0" fill="#b5ffff" stroke="#5aa8a8"/><g transform="translate(487,45)" fill="none" stroke="#444" stroke-width="1.3"><rect x="4" y="2" width="10" height="12"/><rect x="2" y="4" width="4" height="2.5"/><rect x="2" y="8.5" width="4" height="2.5"/></g><text x="237" y="58" font-family="Arial, Helvetica, sans-serif" font-size="12" fill="#2a5a5a" text-anchor="start">van</text><text x="237" y="76" font-family="Arial, Helvetica, sans-serif" font-size="14" font-weight="bold" fill="#1c1c1c" text-anchor="start">Student volg systeem (SVS)</text><path d="M515.44 64H745.44" stroke="#2a5a5a" stroke-width="2" stroke-dasharray="5 4"/><path d="M743.44 58l10 6-10 6z" fill="#2a5a5a"/><rect x="755" y="40" width="402" height="48" rx="0" fill="#b5ffff" stroke="#5aa8a8"/><g transform="translate(1136,45)" fill="none" stroke="#444" stroke-width="1.3"><rect x="4" y="2" width="10" height="12"/><rect x="2" y="4" width="4" height="2.5"/><rect x="2" y="8.5" width="4" height="2.5"/></g><text x="765" y="58" font-family="Arial, Helvetica, sans-serif" font-size="12" fill="#2a5a5a" text-anchor="start">naar</text><text x="765" y="76" font-family="Arial, Helvetica, sans-serif" font-size="14" font-weight="bold" fill="#1c1c1c" text-anchor="start">Kernregistratie systeem studenten (KRS)</text><rect x="12" y="90" width="196" height="19" rx="9" fill="#ffffff" stroke="#c8ccc9" stroke-dasharray="2 2"/><text x="20" y="104" font-family="Arial, Helvetica, sans-serif" font-size="12" fill="#5b6663" text-anchor="start">na: Summatief vaststellen</text><path d="M529.44 64V118" stroke="#2a5a5a" stroke-width="1.5" stroke-dasharray="3 3"/><path d="M64 122V211" stroke="#2a5a5a" stroke-width="1.5" stroke-dasharray="3 3"/><path d="M64 122V304" stroke="#2a5a5a" stroke-width="1.5" stroke-dasharray="3 3"/><rect x="40" y="122" width="604" height="65" rx="0" fill="#ffffb5" stroke="#a8a85a"/><g transform="translate(622,127)" fill="none" stroke="#444" stroke-width="1.3"><rect x="2" y="3" width="12" height="10"/><path d="M2 6.5h12"/></g><text x="50" y="140" font-family="Arial, Helvetica, sans-serif" font-size="12" fill="#5a5a2a" text-anchor="start">Summatief resultaat</text><text x="50" y="158" font-family="Arial, Helvetica, sans-serif" font-size="14" font-weight="bold" fill="#1c1c1c" text-anchor="start">B1-K1: voldoende, vastgesteld</text><text x="50" y="175" font-family="Arial, Helvetica, sans-serif" font-size="12" fill="#5b6663" text-anchor="start">Summatieve resultaat structuur conform: Resultaatstructuur Apothekersassistent</text><rect x="40" y="215" width="596" height="65" rx="0" fill="#ffffb5" stroke="#a8a85a"/><g transform="translate(614,220)" fill="none" stroke="#444" stroke-width="1.3"><rect x="2" y="3" width="12" height="10"/><path d="M2 6.5h12"/></g><text x="50" y="233" font-family="Arial, Helvetica, sans-serif" font-size="12" fill="#5a5a2a" text-anchor="start">Opleidingsprogramma resultaat</text><text x="50" y="251" font-family="Arial, Helvetica, sans-serif" font-size="14" font-weight="bold" fill="#1c1c1c" text-anchor="start">Regulier BOL 2026: alle kerntaken en keuzedelen voldoende</text><text x="50" y="268" font-family="Arial, Helvetica, sans-serif" font-size="12" fill="#5b6663" text-anchor="start">Opleidingsprogramma aanbod verbintenis hangt aan: Jochem op Regulier BOL 2026</text><rect x="40" y="308" width="384" height="65" rx="0" fill="#ffffb5" stroke="#a8a85a"/><g transform="translate(402,313)" fill="none" stroke="#444" stroke-width="1.3"><rect x="2" y="3" width="12" height="10"/><path d="M2 6.5h12"/></g><text x="50" y="326" font-family="Arial, Helvetica, sans-serif" font-size="12" fill="#5a5a2a" text-anchor="start">Keuzedeel resultaat</text><text x="50" y="344" font-family="Arial, Helvetica, sans-serif" font-size="14" font-weight="bold" fill="#1c1c1c" text-anchor="start">Ondernemerschap in de zorg: voldoende</text><text x="50" y="361" font-family="Arial, Helvetica, sans-serif" font-size="12" fill="#5b6663" text-anchor="start">is een Opleidingsprogramma resultaat</text></svg>